<svg height="512" viewBox="0 0 128 128" width="512" xmlns="http://www.w3.org/2000/svg"><path d="m119.37 23.414h-58.042a5.324 5.324 0 0 1 -4.377-2.292l-2.581-3.722a7.459 7.459 0 0 0 -6.132-3.213h-35.672a5 5 0 0 0 -5 5v93.829a5 5 0 0 0 5 5h106.8a5 5 0 0 0 5-5v-84.6a5 5 0 0 0 -4.996-5.002z" fill="#e6e7e8"/><path d="m4.63 33h114.675a0 0 0 0 1 0 0v75.687a4 4 0 0 1 -4 4h-106.675a4 4 0 0 1 -4-4v-75.687a0 0 0 0 1 0 0z" fill="#d4fbff"/><path d="m23.107 86.294a14.191 14.191 0 0 1 -5.143-2.432 3.244 3.244 0 0 1 -1-1.089 3.409 3.409 0 0 1 .418-3.5 2.092 2.092 0 0 1 1.644-.88 3.136 3.136 0 0 1 1 .162 6.307 6.307 0 0 1 1.182.579 15.526 15.526 0 0 0 4.032 1.831 16.418 16.418 0 0 0 4.494.58 8.856 8.856 0 0 0 4.682-1.02 3.252 3.252 0 0 0 1.621-2.92 2.63 2.63 0 0 0 -1.505-2.318 19.45 19.45 0 0 0 -5.353-1.668 29.541 29.541 0 0 1 -6.879-2.132 8.911 8.911 0 0 1 -3.754-3.1 8.178 8.178 0 0 1 -1.182-4.5 8.767 8.767 0 0 1 1.691-5.26 11.215 11.215 0 0 1 4.681-3.662 16.53 16.53 0 0 1 6.744-1.32 17.23 17.23 0 0 1 10.844 3.29 3.707 3.707 0 0 1 1 1.135 3.037 3.037 0 0 1 .3 1.414 3.124 3.124 0 0 1 -.72 2.039 2.091 2.091 0 0 1 -1.644.881 3.128 3.128 0 0 1 -.951-.139 6.544 6.544 0 0 1 -1.228-.6 19.561 19.561 0 0 0 -3.5-1.807 11.658 11.658 0 0 0 -4.056-.6 7.9 7.9 0 0 0 -4.449 1.089 3.417 3.417 0 0 0 -1.623 2.99 2.694 2.694 0 0 0 .626 1.831 5.2 5.2 0 0 0 2.085 1.274 31.843 31.843 0 0 0 4.149 1.158q6.3 1.391 9.061 3.569a7.208 7.208 0 0 1 2.756 5.979 8.7 8.7 0 0 1 -1.644 5.237 10.621 10.621 0 0 1 -4.637 3.515 17.835 17.835 0 0 1 -6.929 1.251 25.865 25.865 0 0 1 -6.813-.857z" fill="#fa759e"/><path d="m76.125 90.442a3.706 3.706 0 0 1 .648 1.993 2.567 2.567 0 0 1 -1.042 2.086 3.913 3.913 0 0 1 -4.263.37 3.453 3.453 0 0 1 -1.368-1.343l-2.78-4.635a3.284 3.284 0 0 0 -1.483-1.344 6.2 6.2 0 0 0 -2.5-.417 16.7 16.7 0 0 1 -8.459-2.062 13.934 13.934 0 0 1 -5.538-5.84 19.12 19.12 0 0 1 -1.947-8.875 19.126 19.126 0 0 1 1.945-8.875 13.794 13.794 0 0 1 5.538-5.816 16.841 16.841 0 0 1 8.459-2.039 16.839 16.839 0 0 1 8.457 2.039 13.794 13.794 0 0 1 5.538 5.816 19.126 19.126 0 0 1 1.946 8.875 18.976 18.976 0 0 1 -2.107 9.2 13.389 13.389 0 0 1 -6 5.77 6.449 6.449 0 0 1 3.661 2.966zm-6.373-11.771q2.34-2.874 2.342-8.3t-2.318-8.271a7.845 7.845 0 0 0 -6.441-2.851 7.779 7.779 0 0 0 -6.42 2.851q-2.293 2.85-2.294 8.272t2.317 8.3a7.766 7.766 0 0 0 6.4 2.874 7.828 7.828 0 0 0 6.414-2.875z" fill="#fa759e"/><path d="m85.673 85.855a3.386 3.386 0 0 1 -.881-2.5v-25.955a3.5 3.5 0 0 1 .974-2.6 4.073 4.073 0 0 1 5.284 0 3.511 3.511 0 0 1 .973 2.6v23.449h11.864q3.382 0 3.383 2.966 0 2.921-3.383 2.92h-15.711a3.385 3.385 0 0 1 -2.503-.88z" fill="#fa759e"/><path d="m115.305 109.687h-106.675a4 4 0 0 1 -4-4v3a4 4 0 0 0 4 4h106.675a4 4 0 0 0 4-4v-3a4 4 0 0 1 -4 4z" fill="#fff"/><path d="m52.074 17.466-2.574-3.725a6.391 6.391 0 0 0 -5.254-2.753h-35.616a4 4 0 0 0 -4 4v18.012h114.675v-8.781a4 4 0 0 0 -4-4h-57.977a6.39 6.39 0 0 1 -5.254-2.753z" fill="#6dc9f7"/><g fill="#3a2c60"><path d="m40.991 70.377c-1.979-1.561-5.075-2.791-9.462-3.758a31.034 31.034 0 0 1 -4.01-1.118 4.2 4.2 0 0 1 -1.687-1 1.717 1.717 0 0 1 -.381-1.175 2.424 2.424 0 0 1 1.181-2.16 6.988 6.988 0 0 1 3.892-.919 10.732 10.732 0 0 1 3.7.539 18.785 18.785 0 0 1 3.343 1.732 7.309 7.309 0 0 0 1.434.7 4.15 4.15 0 0 0 1.253.186 3.059 3.059 0 0 0 2.417-1.247 4.113 4.113 0 0 0 .946-2.673 4.028 4.028 0 0 0 -.416-1.878 4.715 4.715 0 0 0 -1.271-1.462 18.275 18.275 0 0 0 -11.455-3.5 17.589 17.589 0 0 0 -7.148 1.406 12.241 12.241 0 0 0 -5.088 3.991 9.783 9.783 0 0 0 -1.881 5.845 9.2 9.2 0 0 0 1.342 5.034 9.923 9.923 0 0 0 4.16 3.467 30.692 30.692 0 0 0 7.118 2.213 18.694 18.694 0 0 1 5.049 1.553c.895.524 1.01 1.052 1.01 1.454a2.264 2.264 0 0 1 -1.153 2.073 7.963 7.963 0 0 1 -4.149.866 15.5 15.5 0 0 1 -4.222-.546 14.684 14.684 0 0 1 -3.79-1.726 7.116 7.116 0 0 0 -1.381-.67 4.132 4.132 0 0 0 -1.313-.214 3.065 3.065 0 0 0 -2.419 1.248 4.407 4.407 0 0 0 -.532 4.591 4.178 4.178 0 0 0 1.266 1.414 15.239 15.239 0 0 0 5.5 2.613 26.968 26.968 0 0 0 7.076.893 18.891 18.891 0 0 0 7.315-1.329 11.63 11.63 0 0 0 5.058-3.858 9.708 9.708 0 0 0 1.835-5.823 8.2 8.2 0 0 0 -3.137-6.762zm-.317 11.415a9.671 9.671 0 0 1 -4.212 3.186 16.911 16.911 0 0 1 -6.542 1.174 25.033 25.033 0 0 1 -6.551-.822 13.33 13.33 0 0 1 -4.814-2.275 2.273 2.273 0 0 1 -.7-.744 2.2 2.2 0 0 1 -.189-1 2.143 2.143 0 0 1 .494-1.407 1.092 1.092 0 0 1 .87-.513 2.156 2.156 0 0 1 .68.11 5.218 5.218 0 0 1 .966.478 16.675 16.675 0 0 0 4.292 1.946 17.467 17.467 0 0 0 4.768.617 9.687 9.687 0 0 0 5.212-1.173 4.258 4.258 0 0 0 2.09-3.766 3.584 3.584 0 0 0 -2-3.181 20 20 0 0 0 -5.656-1.785 28.757 28.757 0 0 1 -6.644-2.051 7.978 7.978 0 0 1 -3.349-2.744 7.235 7.235 0 0 1 -1.026-3.957 7.725 7.725 0 0 1 1.5-4.674 10.282 10.282 0 0 1 4.276-3.333 15.6 15.6 0 0 1 6.339-1.235 16.326 16.326 0 0 1 10.222 3.074 2.744 2.744 0 0 1 .735.815 2.079 2.079 0 0 1 .188.952 2.136 2.136 0 0 1 -.495 1.408 1.086 1.086 0 0 1 -.868.512 2.131 2.131 0 0 1 -.65-.092 5.464 5.464 0 0 1 -.994-.495 20.616 20.616 0 0 0 -3.681-1.9 12.677 12.677 0 0 0 -4.407-.667 8.882 8.882 0 0 0 -5.006 1.259 4.433 4.433 0 0 0 -2.067 3.82 3.676 3.676 0 0 0 .872 2.488 6.088 6.088 0 0 0 2.484 1.551 32.494 32.494 0 0 0 4.288 1.2c4.032.889 6.945 2.025 8.657 3.376a6.205 6.205 0 0 1 2.376 5.195 7.655 7.655 0 0 1 -1.458 4.653z"/><path d="m72.286 54.814a17.915 17.915 0 0 0 -8.952-2.169 17.91 17.91 0 0 0 -8.952 2.169 14.847 14.847 0 0 0 -5.934 6.228 20.209 20.209 0 0 0 -2.056 9.334 20.194 20.194 0 0 0 2.056 9.332 14.978 14.978 0 0 0 5.93 6.249 17.743 17.743 0 0 0 8.956 2.2 5.288 5.288 0 0 1 2.092.329 2.283 2.283 0 0 1 1.037.947l2.772 4.622a4.469 4.469 0 0 0 1.757 1.721 4.913 4.913 0 0 0 5.363-.469 3.579 3.579 0 0 0 1.419-2.867 4.7 4.7 0 0 0 -.8-2.52l-1.294-2.126a7.985 7.985 0 0 0 -2.365-2.523 14.505 14.505 0 0 0 4.731-5.213 20.026 20.026 0 0 0 2.23-9.677 20.218 20.218 0 0 0 -2.058-9.334 14.851 14.851 0 0 0 -5.932-6.233zm4 24.282a12.472 12.472 0 0 1 -5.563 5.35 1 1 0 0 0 .146 1.855 5.436 5.436 0 0 1 3.1 2.53l1.3 2.131.01.018a2.744 2.744 0 0 1 .493 1.455 1.584 1.584 0 0 1 -.667 1.3 2.915 2.915 0 0 1 -3.165.271 2.473 2.473 0 0 1 -.984-.978l-2.778-4.628a4.271 4.271 0 0 0 -1.931-1.741 7.067 7.067 0 0 0 -2.913-.506 15.785 15.785 0 0 1 -7.96-1.929 13.015 13.015 0 0 1 -5.148-5.431 18.235 18.235 0 0 1 -1.834-8.416 18.249 18.249 0 0 1 1.834-8.418 12.876 12.876 0 0 1 5.144-5.405 15.94 15.94 0 0 1 7.964-1.908 15.943 15.943 0 0 1 7.966 1.907 12.888 12.888 0 0 1 5.144 5.405 18.255 18.255 0 0 1 1.835 8.418 18.064 18.064 0 0 1 -1.988 8.724z"/><path d="m63.334 58.252a8.767 8.767 0 0 0 -7.2 3.224c-1.669 2.073-2.515 5.068-2.515 8.9s.854 6.835 2.538 8.922a8.752 8.752 0 0 0 7.175 3.246 8.811 8.811 0 0 0 7.195-3.244c1.7-2.09 2.567-5.093 2.567-8.926s-.856-6.83-2.542-8.905a8.839 8.839 0 0 0 -7.218-3.217zm5.643 19.787a6.82 6.82 0 0 1 -5.643 2.5 6.755 6.755 0 0 1 -5.618-2.5c-1.39-1.723-2.095-4.3-2.095-7.667s.7-5.937 2.073-7.646a6.772 6.772 0 0 1 5.64-2.478 6.838 6.838 0 0 1 5.666 2.485c1.39 1.709 2.094 4.28 2.094 7.643s-.712 5.939-2.117 7.663z"/><path d="m103.887 79.849h-10.864v-22.449a4.487 4.487 0 0 0 -1.266-3.3 5.061 5.061 0 0 0 -6.7 0 4.48 4.48 0 0 0 -1.269 3.3v25.952a4.056 4.056 0 0 0 4.384 4.383h15.711c2.786 0 4.384-1.429 4.384-3.92.004-2.521-1.594-3.966-4.38-3.966zm0 5.886h-15.711a2.089 2.089 0 0 1 -2.384-2.383v-25.952a2.527 2.527 0 0 1 .682-1.888 3.092 3.092 0 0 1 3.869 0 2.534 2.534 0 0 1 .68 1.888v23.449a1 1 0 0 0 1 1h11.864c1.978 0 2.384.786 2.384 1.966 0 1.152-.406 1.92-2.384 1.92z"/><path d="m115.305 19.219h-15.587a1 1 0 0 0 0 2h15.587a3 3 0 0 1 3 3v7.781h-112.675v-17.012a3 3 0 0 1 3-3h35.61a5.393 5.393 0 0 1 4.433 2.322l2.578 3.725a7.394 7.394 0 0 0 6.077 3.184h21.89a1 1 0 0 0 0-2h-21.89a5.391 5.391 0 0 1 -4.428-2.319l-2.578-3.726a7.4 7.4 0 0 0 -6.082-3.186h-35.61a5.006 5.006 0 0 0 -5 5v93.7a5.006 5.006 0 0 0 5 5h106.675a5.006 5.006 0 0 0 5-5v-84.469a5.006 5.006 0 0 0 -5-5zm0 92.468h-106.675a3 3 0 0 1 -3-3v-74.687h112.675v74.687a3 3 0 0 1 -3 3z"/><path d="m83.718 21.219h10.5a1 1 0 0 0 0-2h-10.5a1 1 0 0 0 0 2z"/></g><circle cx="40.249" cy="22.416" fill="#fff" r="3.257"/><circle cx="28.417" cy="22.416" fill="#d4fbff" r="3.257"/><circle cx="16.586" cy="22.416" fill="#fa759e" r="3.257"/></svg>